<svg width="543" height="252" viewBox="0 0 543 252" fill="none" xmlns="http://www.w3.org/2000/svg">
<path d="M0 0H182.225C219.228 0 249.225 29.9969 249.225 67V67V67C249.225 108.421 215.646 142 174.225 142H137.725L100.509 107.5H175.323C197.414 107.5 215.323 89.5914 215.323 67.5V67V67C215.323 45.4609 197.862 28 176.323 28H28.7249L0 0Z" fill="#C422C8"/>
<path d="M517 0L334 0C296.997 0 267 29.9969 267 67V67V67C267 108.421 300.579 142 342 142H378.847L416.179 107.5H341.007C318.916 107.5 301.007 89.5914 301.007 67.5V67V67C301.007 45.4609 318.468 28 340.007 28H488.186L517 0Z" fill="#C422C8"/>
<path d="M293 250L476 250C513.003 250 543 220.003 543 183V183V183C543 141.579 509.421 108 468 108H431.153L393.821 142.5L468.993 142.5C491.084 142.5 508.993 160.409 508.993 182.5V183V183C508.993 204.539 491.532 222 469.993 222L321.814 222L293 250Z" fill="#C422C8"/>
<path d="M36 108H84.5714L246 252H195.048L67.4286 141.244V252L36 216.576V108Z" fill="#C422C8"/>
</svg>
